<?xml version="1.0" ?><svg viewBox="0 0 512 512" xmlns="http://www.w3.org/2000/svg"><defs><style>.d{fill:none;stroke:#000;stroke-linecap:round;stroke-linejoin:round;stroke-width:14px;}</style></defs><g id="a"/><g id="b"><g><circle class="d" cx="256" cy="256" r="157.294"/><path class="d" d="M208.812,226.362s-26.323,.409-43.957,21.158"/><path class="d" d="M312.408,226.362s26.323,.409,43.957,21.158"/><path d="M195.685,278.533c7.248,0,13.127-5.87,13.127-13.118s-5.878-13.112-13.127-13.112-13.111,5.863-13.111,13.112,5.869,13.118,13.111,13.118Z"/><path d="M321.259,278.533c7.248,0,13.127-5.87,13.127-13.118s-5.878-13.112-13.127-13.112-13.111,5.863-13.111,13.112,5.869,13.118,13.111,13.118Z"/><path class="d" d="M351.787,358.824c0,16.856-13.664,30.52-30.52,30.52s-30.52-13.664-30.52-30.52,30.52-59.632,30.52-59.632c0,0,30.52,42.776,30.52,59.632Z"/><path class="d" d="M238.48,322.711s5.837-8.912,17.52-8.912,18.784,8.912,18.784,8.912"/></g></g><g id="c"/></svg>